<svg width="1502" height="246" viewBox="0 0 1502 246" fill="none" xmlns="http://www.w3.org/2000/svg">
  <path d="M377.886 169.192C369.553 169.192 365.386 167.773 365.386 161.224C365.386 159.627 365.849 157.71 366.93 155.474L394.068 97.1576H474.577C486.258 97.1576 485.412 108.095 481.336 117.133L479.268 121.371H513.065L515.235 117.133C523.709 100.184 519.485 84.4458 497.723 84.4458H366.367L331.589 159.308C330.817 161.543 330.509 163.62 330.509 165.696C330.509 172.245 334.058 177.515 341.003 181.349C346.559 184.384 352.886 185.98 359.984 185.98L483.051 186.141L491.47 169.192H377.886ZM648.305 84.4458H546.61L504.238 185.98H538.136L576.271 97.1576H625.192C639.698 97.1576 639.831 109.869 631.356 122.581H665.308L669.492 114.107C674.936 98.3857 665.873 84.4458 648.305 84.4458ZM830.509 84.4458H694.916C682.204 118.344 673.729 135.293 665.255 160.717C661.017 177.666 671.455 185.98 691.783 185.98H816.785L849.331 114.982C854.526 98.9023 848.549 84.4458 830.509 84.4458ZM792.373 169.192H710.559C702.376 169.192 697.494 167.613 697.494 161.224C697.494 159.308 697.956 157.391 698.88 155.474L724.577 97.1576H805.085C821.141 97.1576 818.546 107.974 813.372 119.454L792.373 169.192ZM875.119 186.141H1052.44L1097.46 84.4458L1063.56 84.2862L1024.35 170.808H967.253L1004.85 84.4458L969.976 84.6053L932.374 170.808H893.333C885 170.808 880.831 167.613 880.831 161.224C880.831 159.308 881.293 157.391 882.223 155.474L915.255 84.4458H881.356L846.414 159.786C845.647 162.023 845.334 164.099 845.334 166.175C845.334 172.724 849.042 177.995 856.295 181.668C861.694 184.703 868.179 186.141 875.119 186.141ZM1297.36 42.0729L1258.47 50.5475L1245.76 84.4458H1156.1C1125.56 83.9671 1114.41 92.9203 1105.93 109.869L1080.51 164.954C1076.27 177.666 1081.1 186.141 1097.46 186.141H1233.05L1297.36 42.0729ZM1127.12 168.891C1114.41 168.891 1110.17 161.224 1114.41 152.242L1131.36 118.344C1139.83 101.395 1144.07 97.1576 1161.02 97.1576H1241.53L1206.76 168.891H1127.12ZM1288.41 186.141L1334.75 75.9712L1297.36 84.4458L1253.37 186.141H1288.41ZM1338.98 63.2593L1347.46 42.0729L1309.32 50.5475L1300.85 71.7339L1338.98 63.2593ZM1478.81 84.4462L1352.16 84.4458L1307.39 186.141H1342.27L1381.36 97.1576H1453.39C1474.58 97.1576 1466.1 114.407 1461.86 122.882L1432.2 186.441H1466.1L1495.76 118.645C1505.49 96.5662 1502.89 84.4462 1478.81 84.4462Z" fill="#263238"/>
  <path d="M280.645 83.9142C271.087 82.7412 261.687 82.1463 252.672 82.1687C223.41 82.2411 173.402 91.5084 173.402 130.405L182.741 132.219C182.616 133.904 182.616 135.597 182.741 137.283C182.741 140.399 182.741 143.386 182.741 146.113L173.402 145.452C175.88 180.561 196.457 190.262 215.837 190.781C225.108 190.781 233.84 189.788 242.389 185.847C242.681 185.71 242.918 185.472 243.059 185.175C243.2 184.877 243.236 184.539 243.162 184.217C243.087 183.895 242.907 183.609 242.651 183.409C242.396 183.209 242.081 183.107 241.76 183.12C223.891 185.717 205.606 171.211 205.606 140.436C205.606 101.481 236.601 86.5112 281.022 86.5112C282.029 86.6411 282.155 84.1739 280.645 83.9142ZM183.311 152.975C188.265 152.975 192.431 152.975 198.174 152.975C199.39 163.424 203.577 175.575 211.055 182.731C204.084 181.846 197.615 178.532 192.718 173.337C187.821 168.143 183.975 160.19 183.311 152.975ZM199.855 120.143C199.855 121.441 198.848 123.778 198.345 126.116H192.431C189.267 125.968 186.115 125.621 182.992 125.077C183.037 124.776 183.037 124.469 182.992 124.168C186.894 103.262 206.902 94.562 226.282 90.9261C220.044 93.4538 214.433 97.3896 209.861 102.445C205.288 107.5 201.869 113.547 199.855 120.143Z" fill="#263238"/>
  <path d="M300.84 52.7914C261.648 41.4152 96.612 27.6226 96.612 122.918C102.168 123.732 106.026 124.981 108.998 125.388C108.602 132.644 108.998 140.594 108.998 147.958L94.1348 145.45C94.1348 200.622 132.95 218.005 163.571 218.005C168.627 217.981 173.676 217.619 178.688 216.92C191.302 215.473 203.537 211.513 214.737 205.252C214.981 205.072 215.165 204.815 215.263 204.519C215.361 204.223 215.367 203.902 215.282 203.601C215.196 203.301 215.022 203.037 214.785 202.846C214.548 202.655 214.26 202.547 213.961 202.538C188.12 207.965 152.718 200.639 152.718 136.601C152.718 51.3987 267.764 56.9973 301.228 55.6405C301.513 55.5102 301.75 55.285 301.902 54.9997C302.054 54.7143 302.112 54.3845 302.068 54.0609C302.024 53.7373 301.88 53.4378 301.658 53.2084C301.436 52.9791 301.149 52.8326 300.84 52.7914ZM163.7 210.815C148.838 211.805 134.19 206.702 122.839 196.58C111.489 186.458 104.321 172.106 102.845 156.545C112.664 157.902 125.197 158.987 135.663 159.53C136.183 170.245 139.382 180.627 144.94 189.631C150.497 198.634 158.216 205.941 167.318 210.815H163.7ZM139.668 107.839C138.893 110.823 137.73 116.115 136.697 120.728L121.192 119.1L105.558 117.064C105.558 67.242 183.313 50.1546 213.04 50.1546C172.728 60.0588 146.258 80.4327 139.668 107.432V107.839Z" fill="#263238"/>
  <path d="M321.005 24.6101C273.251 7.68393 219.075 -0.634076 168.448 0.0379596C95.2585 0.0379596 2.47718 22.608 0 100.349L19.8175 105.365C17.3403 115.396 17.3403 135.458 17.3403 135.458C17.3403 135.458 6.04168 131.995 0 130.443C0 222.395 51.958 245.762 101.962 245.762C122.157 245.825 142.194 242.187 161.094 235.028C161.392 234.891 161.634 234.654 161.778 234.358C161.921 234.062 161.959 233.724 161.883 233.404C161.807 233.083 161.623 232.799 161.361 232.6C161.1 232.4 160.778 232.299 160.451 232.312C144.897 232.312 132.557 237.485 107.876 219.379C59.9279 184.589 65.841 94.0595 120.73 54.6143C177.291 12.9706 299.538 25.9034 320.491 27.1967C320.66 27.2307 320.834 27.2308 321.003 27.1972C321.172 27.1636 321.332 27.0969 321.475 27.0008C321.619 26.9047 321.742 26.7812 321.837 26.6373C321.933 26.4934 322 26.3319 322.034 26.1621C322.067 25.9922 322.068 25.8174 322.034 25.6475C322.001 25.4775 321.934 25.3159 321.839 25.1718C321.744 25.0277 321.621 24.9039 321.478 24.8075C321.335 24.7112 321.174 24.6441 321.005 24.6101ZM102.477 238.002C43.0883 238.002 12.7368 204.621 9.90874 140.474C26.0356 144.682 41.2451 148.884 57.7426 151.223C56.7485 176.362 65.3488 200.931 81.7807 219.896C90.1834 228.346 100.509 234.606 111.861 238.132L102.477 238.002ZM237.065 14.6518C164.689 14.6518 80.8425 23.7366 64.4068 105.365C64.4068 105.365 19.8175 97.8415 9.90874 95.3337C22.2947 -7.48539 193.22 0.272305 262.581 14.6518H237.065Z" fill="#263238"/>
</svg>
